<svg xmlns="http://www.w3.org/2000/svg" width="7.781" height="4.53" viewBox="0 0 7.781 4.53">
  <defs>
    <style>
      .cls-1 {
        fill-rule: evenodd;
      }
    </style>
  </defs>
  <path fill="#fff" id="_" data-name="" class="cls-1" d="M450.955,3400.15l-0.391-.39a0.243,0.243,0,0,0-.36,0l-3.07,3.07-3.071-3.07a0.241,0.241,0,0,0-.359,0l-0.391.39a0.276,0.276,0,0,0-.078.18,0.241,0.241,0,0,0,.078.18l3.641,3.64a0.241,0.241,0,0,0,.359,0l3.642-3.64a0.241,0.241,0,0,0,.078-0.18,0.276,0.276,0,0,0-.078-0.18h0Z" transform="translate(-443.25 -3399.69)"/>
</svg>
